RobotoSerifMicroCond-Super Italic 04fz.ufo
<glyph name="Q" format="2">
  <advance width="715"/>
  <unicode hex="0051"/>
  <outline>
    <contour>
      <point x="591" y="-25"/>
      <point x="701" y="256"/>
      <point x="701" y="472" type="curve" smooth="yes"/>
      <point x="701" y="627"/>
      <point x="598" y="735"/>
      <point x="429" y="735" type="curve" smooth="yes"/>
      <point x="147" y="735"/>
      <point x="37" y="454"/>
      <point x="37" y="238" type="curve" smooth="yes"/>
      <point x="37" y="83"/>
      <point x="140" y="-25"/>
      <point x="309" y="-25" type="curve" smooth="yes"/>
    </contour>
    <contour>
      <point x="314" y="65" type="curve" smooth="yes"/>
      <point x="275" y="65"/>
      <point x="253" y="88"/>
      <point x="253" y="149" type="curve" smooth="yes"/>
      <point x="253" y="191"/>
      <point x="261" y="263"/>
      <point x="285" y="367" type="curve" smooth="yes"/>
      <point x="329" y="558"/>
      <point x="361" y="645"/>
      <point x="424" y="645" type="curve" smooth="yes"/>
      <point x="463" y="645"/>
      <point x="485" y="623"/>
      <point x="485" y="561" type="curve" smooth="yes"/>
      <point x="485" y="519"/>
      <point x="476" y="443"/>
      <point x="453" y="343" type="curve" smooth="yes"/>
      <point x="406" y="151"/>
      <point x="377" y="65"/>
    </contour>
    <contour>
      <point x="411" y="-269" type="curve" smooth="yes"/>
      <point x="468" y="-269"/>
      <point x="516" y="-257"/>
      <point x="544" y="-248" type="curve"/>
      <point x="584" y="-90" type="line"/>
      <point x="547" y="-104"/>
      <point x="496" y="-123"/>
      <point x="429" y="-123" type="curve" smooth="yes"/>
      <point x="361" y="-123"/>
      <point x="328" y="-97"/>
      <point x="328" y="-48" type="curve" smooth="yes"/>
      <point x="328" y="-26"/>
      <point x="331" y="-10"/>
      <point x="338" y="8" type="curve"/>
      <point x="228" y="6" type="line"/>
      <point x="215" y="-37"/>
      <point x="207" y="-77"/>
      <point x="207" y="-114" type="curve" smooth="yes"/>
      <point x="207" y="-219"/>
      <point x="287" y="-269"/>
    </contour>
  </outline>
</glyph>
<glyph name="R" format="2">
  <advance width="716"/>
  <unicode hex="0052"/>
  <anchor x="420.0" y="741" name="top"/>
  <anchor x="420.0" y="0" name="bottom"/>
  <outline>
    <contour>
      <point x="318" y="320" type="line"/>
      <point x="400" y="0" type="line"/>
      <point x="632" y="0" type="line"/>
      <point x="654" y="85" type="line"/>
      <point x="645" y="85" type="line" smooth="yes"/>
      <point x="619" y="85"/>
      <point x="608" y="94"/>
      <point x="593" y="146" type="curve" smooth="yes"/>
      <point x="526" y="375" type="line"/>
    </contour>
    <contour>
      <point x="-40" y="0" type="line"/>
      <point x="273" y="0" type="line"/>
      <point x="295" y="85" type="line"/>
      <point x="286" y="85" type="line" smooth="yes"/>
      <point x="263" y="85"/>
      <point x="253" y="88"/>
      <point x="255" y="95" type="curve"/>
      <point x="302" y="285" type="line"/>
      <point x="427" y="285" type="line"/>
      <point x="439" y="292"/>
      <point x="428" y="314"/>
      <point x="450" y="325" type="curve"/>
      <point x="600" y="329"/>
      <point x="708" y="407"/>
      <point x="708" y="533" type="curve" smooth="yes"/>
      <point x="708" y="651"/>
      <point x="619" y="710"/>
      <point x="475" y="710" type="curve" smooth="yes"/>
      <point x="138" y="710" type="line"/>
      <point x="116" y="625" type="line"/>
      <point x="126" y="625" type="line" smooth="yes"/>
      <point x="146" y="625"/>
      <point x="157" y="619"/>
      <point x="149" y="589" type="curve" smooth="yes"/>
      <point x="33" y="121" type="line" smooth="yes"/>
      <point x="26" y="91"/>
      <point x="9" y="85"/>
      <point x="-9" y="85" type="curve" smooth="yes"/>
      <point x="-18" y="85" type="line"/>
    </contour>
    <contour>
      <point x="396" y="626" type="line" smooth="yes"/>
      <point x="450" y="626"/>
      <point x="476" y="597"/>
      <point x="476" y="539" type="curve" smooth="yes"/>
      <point x="476" y="461"/>
      <point x="431" y="369"/>
      <point x="369" y="369" type="curve" smooth="yes"/>
      <point x="324" y="369" type="line"/>
      <point x="388" y="626" type="line"/>
    </contour>
  </outline>
</glyph>
<glyph name="S" format="2">
  <advance width="607"/>
  <unicode hex="0053"/>
  <anchor x="348" y="741" name="top"/>
  <anchor x="338" y="0" name="bottom"/>
  <outline>
    <contour>
      <point x="306" y="-25" type="curve" smooth="yes"/>
      <point x="483" y="-25"/>
      <point x="559" y="84"/>
      <point x="559" y="228" type="curve" smooth="yes"/>
      <point x="559" y="352"/>
      <point x="492" y="405"/>
      <point x="403" y="449" type="curve" smooth="yes"/>
      <point x="320" y="489"/>
      <point x="280" y="508"/>
      <point x="280" y="572" type="curve" smooth="yes"/>
      <point x="280" y="626"/>
      <point x="308" y="654"/>
      <point x="362" y="654" type="curve" smooth="yes"/>
      <point x="434" y="654"/>
      <point x="464" y="606"/>
      <point x="474" y="503" type="curve"/>
      <point x="583" y="503" type="line"/>
      <point x="637" y="720" type="line"/>
      <point x="554" y="720" type="line"/>
      <point x="501" y="596" type="line"/>
      <point x="493" y="556"/>
      <point x="496" y="560"/>
      <point x="509" y="585" type="curve"/>
      <point x="504" y="690"/>
      <point x="449" y="735"/>
      <point x="339" y="735" type="curve" smooth="yes"/>
      <point x="168" y="735"/>
      <point x="95" y="623"/>
      <point x="95" y="488" type="curve" smooth="yes"/>
      <point x="95" y="382"/>
      <point x="141" y="322"/>
      <point x="217" y="285" type="curve" smooth="yes"/>
      <point x="315" y="238"/>
      <point x="370" y="213"/>
      <point x="370" y="145" type="curve" smooth="yes"/>
      <point x="370" y="86"/>
      <point x="344" y="57"/>
      <point x="284" y="57" type="curve" smooth="yes"/>
      <point x="207" y="57"/>
      <point x="151" y="109"/>
      <point x="138" y="236" type="curve"/>
      <point x="22" y="236" type="line"/>
      <point x="-39" y="-4" type="line"/>
      <point x="44" y="-4" type="line"/>
      <point x="105" y="143" type="line"/>
      <point x="108" y="179"/>
      <point x="98" y="166"/>
      <point x="94" y="145" type="curve"/>
      <point x="109" y="26"/>
      <point x="187" y="-25"/>
    </contour>
  </outline>
</glyph>
<glyph name="V" format="2">
  <advance width="643"/>
  <unicode hex="0056"/>
  <outline>
    <contour>
      <point x="313" y="58" type="line"/>
      <point x="352" y="614" type="line"/>
      <point x="354" y="621"/>
      <point x="362" y="625"/>
      <point x="395" y="625" type="curve" smooth="yes"/>
      <point x="403" y="625" type="line"/>
      <point x="424" y="710" type="line"/>
      <point x="104" y="710" type="line"/>
      <point x="83" y="625" type="line"/>
      <point x="87" y="625" type="line" smooth="yes"/>
      <point x="109" y="625"/>
      <point x="120" y="612"/>
      <point x="118" y="561" type="curve" smooth="yes"/>
      <point x="91" y="-4" type="line"/>
      <point x="349" y="-4" type="line"/>
      <point x="623" y="561" type="line" smooth="yes"/>
      <point x="647" y="612"/>
      <point x="668" y="625"/>
      <point x="690" y="625" type="curve" smooth="yes"/>
      <point x="695" y="625" type="line"/>
      <point x="716" y="710" type="line"/>
      <point x="522" y="710" type="line"/>
      <point x="501" y="625" type="line"/>
      <point x="507" y="625" type="line" smooth="yes"/>
      <point x="541" y="625"/>
      <point x="545" y="615"/>
      <point x="542" y="602" type="curve"/>
      <point x="288" y="59" type="line"/>
    </contour>
  </outline>
</glyph>
<glyph name="W" format="2">
  <advance width="938"/>
  <unicode hex="0057"/>
  <guideline x="222" y="173" angle="0" identifier="9JG3WmlYoA"/>
  <anchor x="468" y="741" name="top"/>
  <outline>
    <contour>
      <point x="104" y="710" type="line"/>
      <point x="83" y="625" type="line"/>
      <point x="90" y="625" type="line" smooth="yes"/>
      <point x="109" y="625"/>
      <point x="121" y="622"/>
      <point x="120" y="598" type="curve" smooth="yes"/>
      <point x="92" y="0" type="line"/>
      <point x="334" y="0" type="line"/>
      <point x="560" y="586" type="line"/>
      <point x="539" y="588" type="line"/>
      <point x="493" y="0" type="line"/>
      <point x="722" y="0" type="line"/>
      <point x="936" y="580" type="line" smooth="yes"/>
      <point x="947" y="611"/>
      <point x="961" y="625"/>
      <point x="984" y="625" type="curve" smooth="yes"/>
      <point x="990" y="625" type="line"/>
      <point x="1011" y="710" type="line"/>
      <point x="846" y="710" type="line"/>
      <point x="825" y="625" type="line"/>
      <point x="833" y="625" type="line"/>
      <point x="862" y="625"/>
      <point x="863" y="615"/>
      <point x="862" y="605" type="curve"/>
      <point x="680" y="107" type="line"/>
      <point x="700" y="110" type="line"/>
      <point x="739" y="710" type="line"/>
      <point x="526" y="710" type="line"/>
      <point x="291" y="98" type="line"/>
      <point x="314" y="69" type="line"/>
      <point x="349" y="614" type="line"/>
      <point x="351" y="621"/>
      <point x="358" y="625"/>
      <point x="381" y="625" type="curve" smooth="yes"/>
      <point x="388" y="625" type="line"/>
      <point x="409" y="710" type="line"/>
    </contour>
  </outline>
</glyph>
<glyph name="X" format="2">
  <advance width="627"/>
  <unicode hex="0058"/>
  <outline>
    <contour>
      <point x="80" y="625" type="line"/>
      <point x="81" y="625" type="line" smooth="yes"/>
      <point x="100" y="625"/>
      <point x="103" y="620"/>
      <point x="113" y="591" type="curve" smooth="yes"/>
      <point x="201" y="338" type="line"/>
      <point x="215" y="331" type="line"/>
      <point x="295" y="95" type="line"/>
      <point x="293" y="88"/>
      <point x="275" y="85"/>
      <point x="262" y="85" type="curve" smooth="yes"/>
      <point x="249" y="85" type="line"/>
      <point x="227" y="0" type="line"/>
      <point x="547" y="0" type="line"/>
      <point x="569" y="85" type="line"/>
      <point x="564" y="85" type="line" smooth="yes"/>
      <point x="539" y="85"/>
      <point x="532" y="88"/>
      <point x="522" y="119" type="curve" smooth="yes"/>
      <point x="432" y="388" type="line"/>
      <point x="419" y="399" type="line"/>
      <point x="347" y="616" type="line"/>
      <point x="348" y="622"/>
      <point x="366" y="625"/>
      <point x="381" y="625" type="curve" smooth="yes"/>
      <point x="392" y="625" type="line"/>
      <point x="413" y="710" type="line"/>
      <point x="101" y="710" type="line"/>
    </contour>
    <contour>
      <point x="-45" y="0" type="line"/>
      <point x="131" y="0" type="line"/>
      <point x="153" y="85" type="line"/>
      <point x="139" y="85" type="line" smooth="yes"/>
      <point x="127" y="85"/>
      <point x="114" y="93"/>
      <point x="117" y="102" type="curve"/>
      <point x="310" y="345" type="line"/>
      <point x="242" y="389" type="line"/>
      <point x="35" y="131" type="line" smooth="yes"/>
      <point x="8" y="97"/>
      <point x="1" y="85"/>
      <point x="-18" y="85" type="curve" smooth="yes"/>
      <point x="-23" y="85" type="line"/>
    </contour>
    <contour>
      <point x="404" y="334" type="line"/>
      <point x="592" y="581" type="line" smooth="yes"/>
      <point x="617" y="613"/>
      <point x="628" y="625"/>
      <point x="647" y="625" type="curve" smooth="yes"/>
      <point x="648" y="625" type="line"/>
      <point x="669" y="710" type="line"/>
      <point x="500" y="710" type="line"/>
      <point x="479" y="625" type="line"/>
      <point x="489" y="625" type="line" smooth="yes"/>
      <point x="500" y="625"/>
      <point x="515" y="618"/>
      <point x="513" y="608" type="curve"/>
      <point x="373" y="420" type="line"/>
    </contour>
  </outline>
</glyph>
<glyph name="Z" format="2">
  <advance width="595"/>
  <unicode hex="005A"/>
  <anchor x="316" y="741" name="top"/>
  <anchor x="316" y="0" name="bottom"/>
  <outline>
    <contour>
      <point x="130" y="86" type="line"/>
      <point x="172" y="40" type="line"/>
      <point x="612" y="582" type="line"/>
      <point x="644" y="710" type="line"/>
      <point x="137" y="710" type="line"/>
      <point x="78" y="479" type="line"/>
      <point x="178" y="479" type="line"/>
      <point x="214" y="582" type="line" smooth="yes"/>
      <point x="227" y="618"/>
      <point x="265" y="624"/>
      <point x="319" y="624" type="curve" smooth="yes"/>
      <point x="454" y="624" type="line"/>
      <point x="422" y="658" type="line"/>
      <point x="-6" y="131" type="line"/>
      <point x="-39" y="0" type="line"/>
      <point x="502" y="0" type="line"/>
      <point x="566" y="261" type="line"/>
      <point x="464" y="261" type="line"/>
      <point x="412" y="128" type="line" smooth="yes"/>
      <point x="398" y="92"/>
      <point x="365" y="86"/>
      <point x="291" y="86" type="curve" smooth="yes"/>
    </contour>
  </outline>
</glyph>
<glyph name="l" format="2">
  <advance width="368"/>
  <unicode hex="006C"/>
  <anchor x="185" y="746" name="top"/>
  <anchor x="326" y="735" name="right"/>
  <anchor x="399" y="391" name="mid"/>
  <anchor x="189" y="0" name="bottom"/>
  <outline>
    <contour>
      <point x="275" y="251" type="curve" smooth="yes"/>
      <point x="407" y="780" type="line"/>
      <point x="158" y="780" type="line"/>
      <point x="138" y="700" type="line"/>
      <point x="145" y="698" type="line" smooth="yes"/>
      <point x="160" y="694"/>
      <point x="166" y="681"/>
      <point x="163" y="668" type="curve" smooth="yes"/>
      <point x="58" y="246" type="line" smooth="yes"/>
      <point x="35" y="151"/>
      <point x="27" y="120"/>
      <point x="27" y="93" type="curve" smooth="yes"/>
      <point x="27" y="33"/>
      <point x="69" y="0"/>
      <point x="140" y="0" type="curve" smooth="yes"/>
      <point x="181" y="0"/>
      <point x="224" y="0"/>
      <point x="266" y="0" type="curve"/>
      <point x="288" y="96" type="line"/>
      <point x="283" y="96"/>
      <point x="279" y="96"/>
      <point x="275" y="96" type="curve"/>
      <point x="255" y="96"/>
      <point x="245" y="103"/>
      <point x="245" y="120" type="curve" smooth="yes"/>
      <point x="245" y="134"/>
      <point x="253" y="164"/>
    </contour>
  </outline>
</glyph>
<glyph name="t" format="2">
  <advance width="449"/>
  <unicode hex="0074"/>
  <anchor x="172" y="675" name="top"/>
  <anchor x="360" y="681" name="right"/>
  <anchor x="294" y="0" name="bottom"/>
  <outline>
    <contour>
      <point x="189" y="0" type="curve" smooth="yes"/>
      <point x="274" y="0"/>
      <point x="317" y="0"/>
      <point x="340" y="0" type="curve"/>
      <point x="365" y="101" type="line"/>
      <point x="359" y="101"/>
      <point x="348" y="101"/>
      <point x="300" y="101" type="curve" smooth="yes"/>
      <point x="274" y="101"/>
      <point x="259" y="109"/>
      <point x="259" y="132" type="curve" smooth="yes"/>
      <point x="259" y="142"/>
      <point x="263" y="164"/>
      <point x="269" y="187" type="curve" smooth="yes"/>
      <point x="405" y="734" type="line"/>
      <point x="197" y="734" type="line"/>
      <point x="172" y="635" type="line" smooth="yes"/>
      <point x="156" y="573"/>
      <point x="126" y="564"/>
      <point x="91" y="564" type="curve" smooth="yes"/>
      <point x="84" y="564" type="line"/>
      <point x="63" y="480" type="line"/>
      <point x="465" y="480" type="line"/>
      <point x="488" y="569" type="line"/>
      <point x="274" y="569" type="line"/>
      <point x="144" y="552" type="line"/>
      <point x="56" y="196" type="line" smooth="yes"/>
      <point x="48" y="166"/>
      <point x="44" y="137"/>
      <point x="44" y="112" type="curve" smooth="yes"/>
      <point x="44" y="33"/>
      <point x="97" y="0"/>
    </contour>
  </outline>
</glyph>
<glyph name="w" format="2">
  <advance width="890"/>
  <unicode hex="0077"/>
  <anchor x="445" y="569" name="top"/>
  <outline>
    <contour>
      <point x="454" y="569" type="line"/>
      <point x="388" y="414"/>
      <point x="325" y="270"/>
      <point x="260" y="120" type="curve"/>
      <point x="281" y="51" type="line"/>
      <point x="299" y="569" type="line"/>
      <point x="77" y="569" type="line"/>
      <point x="57" y="489" type="line"/>
      <point x="66" y="486" type="line" smooth="yes"/>
      <point x="85" y="479"/>
      <point x="89" y="470"/>
      <point x="89" y="457" type="curve" smooth="yes"/>
      <point x="80" y="0" type="line"/>
      <point x="287" y="0" type="line"/>
      <point x="356" y="149"/>
      <point x="431" y="311"/>
      <point x="498" y="457" type="curve"/>
      <point x="438" y="464" type="line"/>
      <point x="417" y="0" type="line"/>
      <point x="619" y="0" type="line"/>
      <point x="722" y="187"/>
      <point x="824" y="374"/>
      <point x="925" y="561" type="curve"/>
      <point x="926" y="569" type="line"/>
      <point x="785" y="569" type="line"/>
      <point x="724" y="421"/>
      <point x="664" y="277"/>
      <point x="592" y="105" type="curve"/>
      <point x="615" y="50" type="line"/>
      <point x="633" y="569" type="line"/>
    </contour>
  </outline>
</glyph>
<glyph name="F.alt" format="2">
  <advance width="608"/>
  <outline>
    <contour>
      <point x="387" y="624" type="line"/>
      <point x="459" y="624" type="line" smooth="yes"/>
      <point x="498" y="624"/>
      <point x="520" y="616"/>
      <point x="518" y="582" type="curve" smooth="yes"/>
      <point x="514" y="512" type="line"/>
      <point x="612" y="512" type="line"/>
      <point x="655" y="710" type="line"/>
      <point x="138" y="710" type="line"/>
      <point x="116" y="625" type="line"/>
      <point x="126" y="625" type="line" smooth="yes"/>
      <point x="150" y="625"/>
      <point x="157" y="620"/>
      <point x="149" y="589" type="curve" smooth="yes"/>
      <point x="33" y="121" type="line" smooth="yes"/>
      <point x="26" y="91"/>
      <point x="11" y="85"/>
      <point x="-10" y="85" type="curve" smooth="yes"/>
      <point x="-18" y="85" type="line"/>
      <point x="-40" y="0" type="line"/>
      <point x="293" y="0" type="line"/>
      <point x="315" y="85" type="line"/>
      <point x="299" y="85" type="line" smooth="yes"/>
      <point x="274" y="85"/>
      <point x="253" y="88"/>
      <point x="255" y="95" type="curve" smooth="yes"/>
    </contour>
    <contour>
      <point x="235" y="384" type="line"/>
      <point x="210" y="299" type="line"/>
      <point x="346" y="299" type="line" smooth="yes"/>
      <point x="371" y="299"/>
      <point x="372" y="275"/>
      <point x="366" y="249" type="curve" smooth="yes"/>
      <point x="362" y="232" type="line"/>
      <point x="445" y="232" type="line"/>
      <point x="500" y="450" type="line"/>
      <point x="417" y="450" type="line"/>
      <point x="413" y="434" type="line" smooth="yes"/>
      <point x="406" y="408"/>
      <point x="393" y="384"/>
      <point x="371" y="384" type="curve" smooth="yes"/>
    </contour>
  </outline>
</glyph>
<glyph name="ampersand" format="2">
  <advance width="746"/>
  <outline>
    <contour>
      <point x="668" y="0" type="line"/>
      <point x="690" y="85" type="line"/>
      <point x="679" y="86" type="line" smooth="yes"/>
      <point x="662" y="88"/>
      <point x="651" y="97"/>
      <point x="622" y="132" type="curve" smooth="yes"/>
      <point x="465" y="319"/>
      <point x="395" y="457"/>
      <point x="395" y="550" type="curve" smooth="yes"/>
      <point x="395" y="595"/>
      <point x="399" y="632"/>
      <point x="442" y="632" type="curve" smooth="yes"/>
      <point x="475" y="632"/>
      <point x="481" y="609"/>
      <point x="481" y="568" type="curve" smooth="yes"/>
      <point x="481" y="496"/>
      <point x="443" y="462"/>
      <point x="341" y="436" type="curve"/>
      <point x="342" y="385" type="line"/>
      <point x="541" y="414"/>
      <point x="654" y="469"/>
      <point x="654" y="585" type="curve" smooth="yes"/>
      <point x="654" y="662"/>
      <point x="611" y="718"/>
      <point x="445" y="718" type="curve" smooth="yes"/>
      <point x="276" y="718"/>
      <point x="201" y="642"/>
      <point x="201" y="516" type="curve" smooth="yes"/>
      <point x="201" y="372"/>
      <point x="301" y="199"/>
      <point x="464" y="0" type="curve"/>
    </contour>
    <contour>
      <point x="325" y="85" type="curve"/>
      <point x="242" y="85"/>
      <point x="218" y="121"/>
      <point x="218" y="207" type="curve" smooth="yes"/>
      <point x="218" y="301"/>
      <point x="243" y="363"/>
      <point x="301" y="385" type="curve"/>
      <point x="292" y="417" type="line"/>
      <point x="101" y="400"/>
      <point x="1" y="348"/>
      <point x="1" y="182" type="curve" smooth="yes"/>
      <point x="1" y="56"/>
      <point x="73" y="-10"/>
      <point x="234" y="-10" type="curve" smooth="yes"/>
      <point x="490" y="-10"/>
      <point x="600" y="181"/>
      <point x="648" y="288" type="curve" smooth="yes"/>
      <point x="663" y="323"/>
      <point x="676" y="333"/>
      <point x="714" y="333" type="curve" smooth="yes"/>
      <point x="727" y="333" type="line"/>
      <point x="750" y="418" type="line"/>
      <point x="559" y="418" type="line"/>
      <point x="536" y="333" type="line"/>
      <point x="542" y="333" type="line" smooth="yes"/>
      <point x="567" y="333"/>
      <point x="585" y="327"/>
      <point x="585" y="321" type="curve"/>
      <point x="559" y="223"/>
      <point x="445" y="85"/>
    </contour>
  </outline>
</glyph>
<glyph name="bar" format="2">
  <advance width="313"/>
  <outline>
    <contour>
      <point x="99" y="780" type="line"/>
      <point x="99" y="-158" type="line"/>
      <point x="214" y="-158" type="line"/>
      <point x="214" y="780" type="line"/>
    </contour>
  </outline>
</glyph>
<glyph name="eight.linprop" format="2">
  <advance width="578"/>
  <outline>
    <contour>
      <point x="231" y="71" type="curve" smooth="yes"/>
      <point x="196" y="71"/>
      <point x="180" y="87"/>
      <point x="180" y="126" type="curve" smooth="yes"/>
      <point x="180" y="148"/>
      <point x="186" y="181"/>
      <point x="195" y="218" type="curve" smooth="yes"/>
      <point x="219" y="307"/>
      <point x="235" y="336"/>
      <point x="278" y="336" type="curve" smooth="yes"/>
      <point x="313" y="336"/>
      <point x="329" y="322"/>
      <point x="329" y="288" type="curve" smooth="yes"/>
      <point x="329" y="269"/>
      <point x="325" y="240"/>
      <point x="316" y="203" type="curve" smooth="yes"/>
      <point x="295" y="115"/>
      <point x="275" y="71"/>
    </contour>
    <contour>
      <point x="313" y="425" type="curve" smooth="yes"/>
      <point x="283" y="425"/>
      <point x="272" y="443"/>
      <point x="272" y="473" type="curve" smooth="yes"/>
      <point x="272" y="492"/>
      <point x="274" y="520"/>
      <point x="282" y="551" type="curve" smooth="yes"/>
      <point x="300" y="628"/>
      <point x="313" y="654"/>
      <point x="355" y="654" type="curve" smooth="yes"/>
      <point x="390" y="654"/>
      <point x="401" y="636"/>
      <point x="401" y="605" type="curve" smooth="yes"/>
      <point x="401" y="581"/>
      <point x="398" y="556"/>
      <point x="390" y="521" type="curve" smooth="yes"/>
      <point x="372" y="443"/>
      <point x="355" y="425"/>
    </contour>
    <contour>
      <point x="252" y="-10" type="curve" smooth="yes"/>
      <point x="424" y="-10"/>
      <point x="518" y="77"/>
      <point x="518" y="209" type="curve" smooth="yes"/>
      <point x="518" y="304"/>
      <point x="453" y="361"/>
      <point x="345" y="381" type="curve"/>
      <point x="385" y="350" type="line"/>
      <point x="399" y="403" type="line"/>
      <point x="349" y="381" type="line"/>
      <point x="488" y="385"/>
      <point x="579" y="432"/>
      <point x="579" y="569" type="curve" smooth="yes"/>
      <point x="579" y="669"/>
      <point x="493" y="735"/>
      <point x="341" y="735" type="curve" smooth="yes"/>
      <point x="173" y="735"/>
      <point x="97" y="651"/>
      <point x="97" y="542" type="curve" smooth="yes"/>
      <point x="97" y="466"/>
      <point x="147" y="414"/>
      <point x="249" y="386" type="curve"/>
      <point x="213" y="419" type="line"/>
      <point x="199" y="366" type="line"/>
      <point x="249" y="390" type="line"/>
      <point x="68" y="387"/>
      <point x="-12" y="306"/>
      <point x="-12" y="181" type="curve" smooth="yes"/>
      <point x="-12" y="56"/>
      <point x="85" y="-10"/>
    </contour>
  </outline>
</glyph>
<glyph name="five.linprop" format="2">
  <advance width="522"/>
  <outline>
    <contour>
      <point x="175" y="-11" type="curve" smooth="yes"/>
      <point x="364" y="-11"/>
      <point x="468" y="105"/>
      <point x="468" y="285" type="curve" smooth="yes"/>
      <point x="468" y="404"/>
      <point x="409" y="469"/>
      <point x="299" y="469" type="curve" smooth="yes"/>
      <point x="213" y="469"/>
      <point x="178" y="428"/>
      <point x="143" y="366" type="curve"/>
      <point x="150" y="360" type="line"/>
      <point x="233" y="690" type="line"/>
      <point x="193" y="576" type="line"/>
      <point x="470" y="576" type="line"/>
      <point x="517" y="710" type="line"/>
      <point x="152" y="710" type="line"/>
      <point x="50" y="305" type="line"/>
      <point x="140" y="305" type="line"/>
      <point x="166" y="354"/>
      <point x="185" y="382"/>
      <point x="220" y="382" type="curve" smooth="yes"/>
      <point x="252" y="382"/>
      <point x="265" y="351"/>
      <point x="265" y="290" type="curve" smooth="yes"/>
      <point x="265" y="210"/>
      <point x="246" y="75"/>
      <point x="157" y="75" type="curve" smooth="yes"/>
      <point x="93" y="75"/>
      <point x="75" y="120"/>
      <point x="59" y="180" type="curve"/>
      <point x="-39" y="154" type="line"/>
      <point x="-16" y="50"/>
      <point x="41" y="-11"/>
    </contour>
  </outline>
</glyph>
<glyph name="nine.linprop" format="2">
  <advance width="550"/>
  <outline>
    <contour>
      <point x="328" y="735" type="curve" smooth="yes"/>
      <point x="473" y="735"/>
      <point x="541" y="662"/>
      <point x="541" y="512" type="curve" smooth="yes"/>
      <point x="541" y="262"/>
      <point x="412" y="-15"/>
      <point x="-10" y="-22" type="curve"/>
      <point x="0" y="64" type="line"/>
      <point x="180" y="78"/>
      <point x="274" y="138"/>
      <point x="332" y="388" type="curve" smooth="yes"/>
      <point x="355" y="485"/>
      <point x="363" y="562"/>
      <point x="363" y="600" type="curve" smooth="yes"/>
      <point x="363" y="640"/>
      <point x="353" y="657"/>
      <point x="327" y="657" type="curve" smooth="yes"/>
      <point x="289" y="657"/>
      <point x="277" y="619"/>
      <point x="250" y="496" type="curve" smooth="yes"/>
      <point x="239" y="448"/>
      <point x="234" y="416"/>
      <point x="234" y="391" type="curve" smooth="yes"/>
      <point x="234" y="354"/>
      <point x="250" y="340"/>
      <point x="266" y="340" type="curve" smooth="yes"/>
      <point x="295" y="340"/>
      <point x="313" y="367"/>
      <point x="357" y="429" type="curve"/>
      <point x="362" y="405" type="line"/>
      <point x="312" y="328"/>
      <point x="262" y="261"/>
      <point x="174" y="261" type="curve" smooth="yes"/>
      <point x="90" y="261"/>
      <point x="41" y="314"/>
      <point x="41" y="401" type="curve" smooth="yes"/>
      <point x="41" y="565"/>
      <point x="116" y="735"/>
    </contour>
  </outline>
</glyph>
<glyph name="nine.oldprop" format="2">
  <advance width="551"/>
  <outline>
    <contour>
      <point x="334" y="649" type="curve" smooth="yes"/>
      <point x="479" y="649"/>
      <point x="547" y="576"/>
      <point x="547" y="426" type="curve" smooth="yes"/>
      <point x="547" y="183"/>
      <point x="418" y="-87"/>
      <point x="-3" y="-94" type="curve"/>
      <point x="7" y="-8" type="line"/>
      <point x="186" y="6"/>
      <point x="282" y="62"/>
      <point x="338" y="302" type="curve" smooth="yes"/>
      <point x="361" y="399"/>
      <point x="369" y="476"/>
      <point x="369" y="514" type="curve" smooth="yes"/>
      <point x="369" y="554"/>
      <point x="359" y="571"/>
      <point x="333" y="571" type="curve" smooth="yes"/>
      <point x="295" y="571"/>
      <point x="283" y="533"/>
      <point x="256" y="410" type="curve" smooth="yes"/>
      <point x="245" y="362"/>
      <point x="240" y="330"/>
      <point x="240" y="305" type="curve" smooth="yes"/>
      <point x="240" y="268"/>
      <point x="256" y="254"/>
      <point x="272" y="254" type="curve" smooth="yes"/>
      <point x="301" y="254"/>
      <point x="319" y="281"/>
      <point x="363" y="343" type="curve"/>
      <point x="368" y="319" type="line"/>
      <point x="318" y="242"/>
      <point x="268" y="175"/>
      <point x="180" y="175" type="curve" smooth="yes"/>
      <point x="96" y="175"/>
      <point x="47" y="228"/>
      <point x="47" y="315" type="curve" smooth="yes"/>
      <point x="47" y="479"/>
      <point x="122" y="649"/>
    </contour>
  </outline>
</glyph>
<glyph name="one.oldprop" format="2">
  <advance width="435"/>
  <outline>
    <contour>
      <point x="296" y="119" type="curve" smooth="yes"/>
      <point x="426" y="639" type="line"/>
      <point x="244" y="639" type="line"/>
      <point x="200" y="594"/>
      <point x="169" y="553"/>
      <point x="78" y="552" type="curve"/>
      <point x="49" y="437" type="line"/>
      <point x="126" y="436"/>
      <point x="161" y="463"/>
      <point x="210" y="566" type="curve"/>
      <point x="196" y="559" type="line"/>
      <point x="86" y="119" type="line" smooth="yes"/>
      <point x="76" y="81"/>
      <point x="57" y="73"/>
      <point x="24" y="73" type="curve" smooth="yes"/>
      <point x="-13" y="73" type="line"/>
      <point x="-32" y="0" type="line"/>
      <point x="340" y="0" type="line"/>
      <point x="359" y="73" type="line"/>
      <point x="339" y="73" type="line" smooth="yes"/>
      <point x="309" y="73"/>
      <point x="286" y="81"/>
    </contour>
  </outline>
</glyph>
<glyph name="parenleft.uc" format="2">
  <advance width="412"/>
  <outline>
    <contour>
      <point x="153" y="-80" type="curve"/>
      <point x="295" y="-80" type="line"/>
      <point x="296" y="-77" type="line"/>
      <point x="263" y="-25"/>
      <point x="219" y="80"/>
      <point x="219" y="222" type="curve" smooth="yes"/>
      <point x="219" y="469"/>
      <point x="360" y="638"/>
      <point x="512" y="747" type="curve"/>
      <point x="513" y="750" type="line"/>
      <point x="369" y="750" type="line"/>
      <point x="201" y="684"/>
      <point x="34" y="489"/>
      <point x="34" y="245" type="curve" smooth="yes"/>
      <point x="34" y="114"/>
      <point x="92" y="-9"/>
    </contour>
  </outline>
</glyph>
<glyph name="six.midprop" format="2">
  <advance width="565"/>
  <outline>
    <contour>
      <point x="234" y="-10" type="curve" smooth="yes"/>
      <point x="442" y="-10"/>
      <point x="510" y="163"/>
      <point x="510" y="330" type="curve" smooth="yes"/>
      <point x="510" y="419"/>
      <point x="459" y="473"/>
      <point x="375" y="473" type="curve" smooth="yes"/>
      <point x="286" y="473"/>
      <point x="233" y="407"/>
      <point x="183" y="329" type="curve"/>
      <point x="188" y="305" type="line"/>
      <point x="232" y="367"/>
      <point x="252" y="393"/>
      <point x="281" y="393" type="curve" smooth="yes"/>
      <point x="298" y="393"/>
      <point x="317" y="381"/>
      <point x="317" y="345" type="curve" smooth="yes"/>
      <point x="317" y="319"/>
      <point x="311" y="284"/>
      <point x="300" y="234" type="curve" smooth="yes"/>
      <point x="272" y="108"/>
      <point x="257" y="68"/>
      <point x="220" y="68" type="curve" smooth="yes"/>
      <point x="193" y="68"/>
      <point x="182" y="85"/>
      <point x="182" y="125" type="curve" smooth="yes"/>
      <point x="182" y="163"/>
      <point x="188" y="218"/>
      <point x="213" y="314" type="curve" smooth="yes"/>
      <point x="282" y="577"/>
      <point x="363" y="647"/>
      <point x="559" y="662" type="curve"/>
      <point x="569" y="750" type="line"/>
      <point x="124" y="743"/>
      <point x="4" y="433"/>
      <point x="4" y="217" type="curve" smooth="yes"/>
      <point x="4" y="69"/>
      <point x="81" y="-10"/>
    </contour>
  </outline>
</glyph>
<glyph name="two.midprop" format="2">
  <advance width="514"/>
  <outline>
    <contour>
      <point x="-57" y="0" type="line"/>
      <point x="-17" y="160" type="line"/>
      <point x="284" y="284"/>
      <point x="327" y="421"/>
      <point x="327" y="531" type="curve" smooth="yes"/>
      <point x="327" y="582"/>
      <point x="312" y="610"/>
      <point x="274" y="610" type="curve" smooth="yes"/>
      <point x="242" y="610"/>
      <point x="200" y="591"/>
      <point x="179" y="577" type="curve"/>
      <point x="169" y="592"/>
      <point x="205" y="611"/>
      <point x="245" y="614" type="curve"/>
      <point x="208" y="466" type="line"/>
      <point x="53" y="466" type="line"/>
      <point x="97" y="645" type="line"/>
      <point x="134" y="660"/>
      <point x="206" y="693"/>
      <point x="299" y="693" type="curve"/>
      <point x="453" y="693"/>
      <point x="527" y="634"/>
      <point x="527" y="519" type="curve" smooth="yes"/>
      <point x="527" y="309"/>
      <point x="366" y="243"/>
      <point x="27" y="116" type="curve"/>
      <point x="21" y="132" type="line"/>
      <point x="255" y="132" type="line" smooth="yes"/>
      <point x="331" y="132"/>
      <point x="359" y="135"/>
      <point x="374" y="174" type="curve" smooth="yes"/>
      <point x="397" y="234" type="line"/>
      <point x="483" y="234" type="line"/>
      <point x="427" y="0" type="line"/>
    </contour>
  </outline>
</glyph>
<glyph name="two.oldprop" format="2">
  <advance width="503"/>
  <outline>
    <contour>
      <point x="454" y="147" type="line"/>
      <point x="30" y="147" type="line"/>
      <point x="25" y="139" type="line"/>
      <point x="313" y="232"/>
      <point x="505" y="261"/>
      <point x="505" y="474" type="curve" smooth="yes"/>
      <point x="505" y="594"/>
      <point x="426" y="649"/>
      <point x="279" y="649" type="curve" smooth="yes"/>
      <point x="189" y="649"/>
      <point x="120" y="614"/>
      <point x="81" y="592" type="curve"/>
      <point x="39" y="425" type="line"/>
      <point x="195" y="425" type="line"/>
      <point x="231" y="570" type="line"/>
      <point x="187" y="567"/>
      <point x="153" y="553"/>
      <point x="166" y="540" type="curve"/>
      <point x="177" y="545"/>
      <point x="211" y="566"/>
      <point x="250" y="566" type="curve" smooth="yes"/>
      <point x="280" y="566"/>
      <point x="294" y="552"/>
      <point x="294" y="489" type="curve" smooth="yes"/>
      <point x="294" y="351"/>
      <point x="240" y="268"/>
      <point x="1" y="191" type="curve"/>
      <point x="-47" y="0" type="line"/>
      <point x="417" y="0" type="line"/>
    </contour>
  </outline>
</glyph>
<glyph name="zero.propslash" format="2">
  <advance width="594"/>
  <outline>
    <contour>
      <point x="235" y="-11" type="curve" smooth="yes"/>
      <point x="495" y="-11.0"/>
      <point x="575.0" y="280.0"/>
      <point x="575" y="466" type="curve" smooth="yes"/>
      <point x="575.0" y="610.0"/>
      <point x="486" y="690.0"/>
      <point x="358" y="690" type="curve"/>
      <point x="99" y="690.0"/>
      <point x="18.0" y="397.0"/>
      <point x="18" y="210" type="curve" smooth="yes"/>
      <point x="18.0" y="68.0"/>
      <point x="108" y="-11.0"/>
    </contour>
    <contour>
      <point x="236" y="71" type="curve" smooth="yes"/>
      <point x="204" y="71.0"/>
      <point x="193.0" y="87.0"/>
      <point x="193" y="128" type="curve" smooth="yes"/>
      <point x="193.0" y="166.0"/>
      <point x="203" y="235"/>
      <point x="232" y="355" type="curve"/>
      <point x="284" y="570"/>
      <point x="315" y="608.0"/>
      <point x="357" y="608" type="curve" smooth="yes"/>
      <point x="388" y="608.0"/>
      <point x="400.0" y="592.0"/>
      <point x="400" y="551" type="curve" smooth="yes"/>
      <point x="400.0" y="513.0"/>
      <point x="390" y="442"/>
      <point x="361" y="321" type="curve"/>
      <point x="310" y="109"/>
      <point x="277" y="71.0"/>
    </contour>
    <contour>
      <point x="99" y="131" type="line"/>
      <point x="505" y="467" type="line"/>
      <point x="497" y="551" type="line"/>
      <point x="88" y="212" type="line"/>
    </contour>
  </outline>
</glyph>
